<?xml version="1.0" encoding="utf-8"?>
<!-- Generator: Adobe Illustrator 15.0.2, SVG Export Plug-In . SVG Version: 6.00 Build 0)  -->
<!DOCTYPE svg PUBLIC "-//W3C//DTD SVG 1.1//EN" "http://www.w3.org/Graphics/SVG/1.1/DTD/svg11.dtd">
<svg version="1.1" id="Calque_1" xmlns="http://www.w3.org/2000/svg" x="0px" y="0px"
     width="649.134px" height="134.021px" viewBox="0 0 649.134 134.021" enable-background="new 0 0 649.134 134.021"
     xml:space="preserve">
<g>
	<path fill-rule="evenodd" clip-rule="evenodd" fill="#EC7404" d="M430.307,114.178c2.603,0,4.712,1.912,4.712,4.268v15.576h-3.67
		v-14.881c0-1.207-1.089-2.184-2.432-2.184h-7.765v-2.779H430.307L430.307,114.178z M418.848,123.406h10.195v2.777h-10.195v7.838
		h-3.671v-19.844h3.671V123.406L418.848,123.406z M463.99,129.061c0,1.205,1.088,2.184,2.431,2.184h11.559v2.777h-12.948
		c-2.603,0-4.713-1.91-4.713-4.266v-11.312c0-2.354,2.11-4.266,4.713-4.266h12.948v2.779h-11.559c-1.343,0-2.431,0.977-2.431,2.184
		V129.061L463.99,129.061z M486.81,116.957c-0.438,0-0.794,0.322-0.794,0.719v5.035h12.005v2.779h-12.005v5.035
		c0,0.396,0.355,0.719,0.794,0.719h13.146v2.777h-16.122c-0.822,0-1.488-0.621-1.488-1.389v-17.064c0-0.768,0.666-1.391,1.488-1.391
		h16.122v2.779H486.81L486.81,116.957z M443.75,130.525c0,0.396,0.355,0.719,0.794,0.719h12.897v2.777h-15.845
		c-0.821,0-1.487-0.621-1.487-1.389l-0.03-18.455h3.671V130.525L443.75,130.525z M520.327,128.012
		c0.229,0.061,0.313-0.047,0.313-0.178l0.001-13.656h3.671v19.844h-1.836c-0.631,0-1.188-0.24-1.519-0.607l-11.908-13.227
		c-0.229-0.061-0.313,0.049-0.313,0.178l-0.001,13.656h-3.671v-18.488v-1.355h1.835c0.631,0,1.188,0.242,1.519,0.607
		L520.327,128.012L520.327,128.012z"/>
	<path fill="none" stroke="#948597" stroke-width="1.5874" stroke-miterlimit="3.8637" d="M0,124.951h405.255 M534.329,124.951
		h114.805 M0,0.793h649.134"/>
	<path fill-rule="evenodd" clip-rule="evenodd" fill="#4066AA" d="M221.529,43.594c3.835,0,6.945,2.792,6.945,6.236v3.962
		c0,3.444-3.11,6.236-6.945,6.236h-23.387V45.72c0-1.175,1.016-2.126,2.268-2.126H221.529L221.529,43.594z M224.883,67.967
		l14.079,24.383h-10.474l-12.14-21.025c-1.158-1.996-3.483-3.357-6.163-3.357h-12.042V92.35h-10.488V39.625
		c0-2.191,1.904-3.969,4.252-3.969h33.591c7.436,0,13.464,5.458,13.464,12.189v7.931c0,6.731-6.029,12.19-13.464,12.19H224.883
		L224.883,67.967z"/>
	<path fill="#4066AA" d="M361.437,74.701c0-0.314,0-39.045,0-39.045h10.488V92.35c0,0-2.348,0-5.244,0
		c-1.802,0-3.393-0.688-4.337-1.736L328.408,52.95c-0.103-0.114-0.253-0.187-0.42-0.187c-0.313,0-0.567,0.254-0.567,0.566
		c0,0.314,0,39.02,0,39.02h-10.488V35.656c0,0,2.348,0,5.245,0c1.804,0,3.394,0.69,4.338,1.738l33.936,37.688
		c0.104,0.115,0.253,0.186,0.419,0.186C361.183,75.268,361.437,75.014,361.437,74.701L361.437,74.701z"/>
	<path fill="#4066AA" d="M420.946,78.176c0,3.443,3.108,6.236,6.945,6.236h33.023v7.938h-36.993
		c-7.437,0-13.464-5.457-13.464-12.189V47.846c0-6.732,6.027-12.189,13.464-12.189h36.993v7.938h-33.023
		c-3.837,0-6.945,2.792-6.945,6.235V78.176L420.946,78.176z"/>
	<path fill-rule="evenodd" clip-rule="evenodd" fill="#4066AA" d="M260.161,78.176c0,3.443,3.109,6.236,6.944,6.236H286.1
		c3.835,0,6.944-2.793,6.944-6.236V49.83c0-3.444-3.109-6.236-6.944-6.236h-18.995c-3.835,0-6.944,2.792-6.944,6.236V78.176
		L260.161,78.176z M263.137,92.35c-7.436,0-13.464-5.457-13.464-12.189V47.845c0-6.731,6.028-12.188,13.464-12.188h26.931
		c7.436,0,13.464,5.458,13.464,12.188V80.16c0,6.732-6.028,12.189-13.464,12.189H263.137L263.137,92.35z"/>
	<polygon fill="#4066AA" points="156.465,92.35 145.977,92.35 145.977,43.594 124.724,43.594 124.724,35.656 177.732,35.656
		177.732,43.594 156.465,43.594 156.465,92.35 	"/>
	<path fill-rule="evenodd" clip-rule="evenodd" fill="#4066AA" d="M481.039,78.178c0,3.445,3.109,6.238,6.944,6.238h18.994
		c3.836,0,6.944-2.793,6.944-6.238V49.833c0-3.444-3.108-6.235-6.944-6.235h-18.994c-3.835,0-6.944,2.792-6.944,6.235V78.178
		L481.039,78.178z M484.015,92.354c-7.436,0-13.463-5.459-13.463-12.189V47.849c0-6.732,6.027-12.189,13.463-12.189h26.932
		c7.436,0,13.463,5.457,13.463,12.189v32.315c0,6.73-6.027,12.189-13.463,12.189H484.015L484.015,92.354z"/>
	<polygon fill="#4066AA" points="396.877,92.354 386.389,92.354 386.389,35.659 396.877,35.659 396.877,92.354 	"/>
</g>
</svg>
